<mxfile host="app.diagrams.net" modified="2024-05-08T20:02:46.099Z" agent="Mozilla/5.0 (Macintosh; Intel Mac OS X 10_15_7) AppleWebKit/537.36 (KHTML, like Gecko) Chrome/124.0.0.0 Safari/537.36" version="24.3.1" etag="g2fRn9-Gr9OFniVUoOM5" type="github">
  <diagram name="Page-1" id="TLpx7UAy7_rMEoIpMEd7">
    <mxGraphModel>
      <root>
        <mxCell id="0" />
        <mxCell id="1" parent="0" />
      </root>
    </mxGraphModel>
  </diagram>
</mxfile>
